<svg version="1.1" id="Layer_1" xmlns="http://www.w3.org/2000/svg" xmlns:xlink="http://www.w3.org/1999/xlink" x="0px" y="0px"
	 width="100%" viewBox="0 0 360 360" enable-background="new 0 0 360 360" xml:space="preserve">
<path fill="#FDFDFD" opacity="1.000000" stroke="none" 
	d="
M211.000000,361.000000 
	C140.690918,361.000000 70.881828,361.000000 1.036369,361.000000 
	C1.036369,241.065918 1.036369,121.131821 1.036369,1.098864 
	C120.892357,1.098864 240.784821,1.098864 360.838623,1.098864 
	C360.838623,120.999825 360.838623,240.999893 360.838623,361.000000 
	C311.131927,361.000000 261.315948,361.000000 211.000000,361.000000 
M287.295593,42.231476 
	C274.551910,36.970325 261.667511,32.020882 249.107651,26.352406 
	C238.477646,21.554903 227.640884,24.403599 216.888397,23.471106 
	C216.888397,35.792686 216.888397,47.345978 216.888397,59.188354 
	C221.363403,59.188354 225.503525,59.168423 229.643387,59.192268 
	C240.085358,59.252419 245.285278,65.070366 243.855667,75.520012 
	C238.893234,111.792725 233.849091,148.054443 228.693497,184.300064 
	C228.386612,186.457550 227.160767,188.691010 225.801117,190.456833 
	C219.403610,198.765503 212.775803,206.896500 206.323410,215.163666 
	C205.358582,216.399826 204.318863,218.008163 204.283554,219.467804 
	C204.086884,227.596893 204.189117,235.733200 204.189117,243.760239 
	C217.805801,248.230835 219.827988,251.118744 219.815781,265.523438 
	C219.797592,287.011993 219.809021,308.500549 219.807861,329.989105 
	C219.807724,332.748932 219.807831,335.508789 219.807831,338.498138 
	C242.047791,338.498138 263.849640,338.566498 285.650513,338.446564 
	C290.644989,338.419067 292.429626,335.981628 292.430481,330.048218 
	C292.443756,236.431412 292.421783,142.814606 292.501617,49.197868 
	C292.504639,45.659180 291.495026,43.442142 287.295593,42.231476 
M149.500137,253.722290 
	C128.211441,253.722290 106.922737,253.722290 86.178383,253.722290 
	C86.504234,265.541962 86.991882,276.957031 87.088539,288.375397 
	C87.201286,301.693787 86.927147,315.015015 86.907761,328.335144 
	C86.895020,337.088806 88.359047,338.520050 97.043617,338.519897 
	C132.842407,338.519135 168.641388,338.441772 204.439758,338.556213 
	C208.888916,338.570435 210.736237,337.231201 210.707397,332.589081 
	C210.561539,309.113800 210.653152,285.637177 210.609695,262.161102 
	C210.597046,255.326370 208.932938,253.735779 201.950104,253.725159 
	C184.800156,253.699066 167.650146,253.720169 149.500137,253.722290 
M192.500229,180.832870 
	C201.608490,180.832870 210.716736,180.832870 219.862289,180.832870 
	C224.893829,144.989700 229.885483,109.563477 234.819580,74.129242 
	C235.504669,69.209099 234.563034,68.366615 228.871628,68.364685 
	C190.059296,68.351524 151.246979,68.356728 112.434654,68.356003 
	C111.378304,68.355988 110.321953,68.355995 109.690536,68.355995 
	C110.073242,72.882858 111.157066,76.913498 110.612808,80.710785 
	C107.402275,103.110497 103.795067,125.453156 100.359077,147.820816 
	C98.728760,158.433899 97.181908,169.059830 95.425613,180.830215 
	C127.922295,180.830215 159.711273,180.830215 192.500229,180.832870 
M79.905022,43.463078 
	C79.905006,44.795773 79.904449,46.128468 79.905067,47.461163 
	C79.909653,57.299633 81.773659,59.186020 91.446312,59.185528 
	C128.262527,59.183647 165.078751,59.186630 201.894958,59.187782 
	C203.651855,59.187840 205.408752,59.187786 206.962158,59.187786 
	C206.962158,46.903831 206.962158,35.311264 206.962158,23.528515 
	C204.990250,23.528515 203.338577,23.528704 201.686890,23.528486 
	C165.703629,23.523745 129.720383,23.519604 93.737122,23.512300 
	C91.904907,23.511929 90.067749,23.390663 88.241394,23.486897 
	C82.769730,23.775211 80.080078,26.512196 79.934395,31.986773 
	C79.841362,35.482777 79.909279,38.983059 79.905022,43.463078 
M191.408356,220.775253 
	C150.837173,220.775253 110.265999,220.775253 69.558647,220.775253 
	C69.558647,226.502396 69.556396,231.498047 69.559166,236.493713 
	C69.563446,244.213120 69.804619,244.468140 77.296150,244.468735 
	C114.784767,244.471756 152.273392,244.470291 189.762009,244.470413 
	C191.384552,244.470428 193.007080,244.470413 195.052109,244.470413 
	C195.052109,237.129654 195.141251,230.162537 194.934814,223.204178 
	C194.910110,222.371094 193.278656,221.585678 191.408356,220.775253 
M101.499809,211.595764 
	C132.125595,211.591461 162.751419,211.600128 193.377121,211.545441 
	C194.948792,211.542633 197.181427,211.558426 197.983994,210.612900 
	C203.503143,204.110626 208.723160,197.354416 214.039429,190.679932 
	C213.838791,190.161057 213.638153,189.642197 213.437500,189.123322 
	C174.016357,189.123322 134.595200,189.117477 95.174072,189.153915 
	C94.086243,189.154922 92.547218,189.233185 91.980980,189.911682 
	C86.215401,196.820145 80.608269,203.860855 74.366776,211.595718 
	C83.919075,211.595718 92.209442,211.595718 101.499809,211.595764 
z"/>
<path fill="#010101" opacity="1.000000" stroke="none" 
	d="
M287.643921,42.420631 
	C291.495026,43.442142 292.504639,45.659180 292.501617,49.197868 
	C292.421783,142.814606 292.443756,236.431412 292.430481,330.048218 
	C292.429626,335.981628 290.644989,338.419067 285.650513,338.446564 
	C263.849640,338.566498 242.047791,338.498138 219.807831,338.498138 
	C219.807831,335.508789 219.807724,332.748932 219.807861,329.989105 
	C219.809021,308.500549 219.797592,287.011993 219.815781,265.523438 
	C219.827988,251.118744 217.805801,248.230835 204.189117,243.760239 
	C204.189117,235.733200 204.086884,227.596893 204.283554,219.467804 
	C204.318863,218.008163 205.358582,216.399826 206.323410,215.163666 
	C212.775803,206.896500 219.403610,198.765503 225.801117,190.456833 
	C227.160767,188.691010 228.386612,186.457550 228.693497,184.300064 
	C233.849091,148.054443 238.893234,111.792725 243.855667,75.520012 
	C245.285278,65.070366 240.085358,59.252419 229.643387,59.192268 
	C225.503525,59.168423 221.363403,59.188354 216.888397,59.188354 
	C216.888397,47.345978 216.888397,35.792686 216.888397,23.471106 
	C227.640884,24.403599 238.477646,21.554903 249.107651,26.352406 
	C261.667511,32.020882 274.551910,36.970325 287.643921,42.420631 
M247.040726,297.240265 
	C242.746109,296.218872 240.707565,298.128357 240.632431,302.330078 
	C240.549500,306.966034 240.620148,311.604523 240.593292,316.241730 
	C240.575317,319.344849 241.941422,321.595001 245.111099,321.618591 
	C248.231674,321.641846 249.803116,319.457031 249.836960,316.370270 
	C249.889603,311.567871 250.011536,306.755615 249.749710,301.966888 
	C249.670288,300.514313 248.420990,299.125732 247.040726,297.240265 
M263.461182,321.703705 
	C266.547607,321.164551 268.016022,319.346649 267.983490,316.196686 
	C267.935638,311.557434 267.987244,306.917267 267.975586,302.277527 
	C267.967896,299.220062 266.721313,297.004974 263.415802,296.971802 
	C260.104279,296.938599 258.821167,299.078003 258.830505,302.186707 
	C258.844452,306.826630 258.460541,311.511658 259.010559,316.085510 
	C259.246704,318.049316 261.401855,319.782288 263.461182,321.703705 
z"/>
<path fill="#030303" opacity="1.000000" stroke="none" 
	d="
M150.000153,253.722290 
	C167.650146,253.720169 184.800156,253.699066 201.950104,253.725159 
	C208.932938,253.735779 210.597046,255.326370 210.609695,262.161102 
	C210.653152,285.637177 210.561539,309.113800 210.707397,332.589081 
	C210.736237,337.231201 208.888916,338.570435 204.439758,338.556213 
	C168.641388,338.441772 132.842407,338.519135 97.043617,338.519897 
	C88.359047,338.520050 86.895020,337.088806 86.907761,328.335144 
	C86.927147,315.015015 87.201286,301.693787 87.088539,288.375397 
	C86.991882,276.957031 86.504234,265.541962 86.178383,253.722290 
	C106.922737,253.722290 128.211441,253.722290 150.000153,253.722290 
M188.847809,325.009918 
	C193.414474,324.115479 195.040344,321.102753 194.977737,316.726990 
	C194.902573,311.473206 194.959961,306.217529 194.959961,301.081055 
	C195.875168,300.920349 196.200958,300.816376 196.527832,300.812897 
	C200.121796,300.774658 204.154617,300.861084 203.967087,295.826019 
	C203.789261,291.051392 199.791580,291.543884 196.466461,291.538727 
	C185.332993,291.521423 174.199265,291.473541 163.066162,291.535461 
	C159.412216,291.555786 154.487640,290.352661 154.231400,296.009094 
	C153.993576,301.259125 158.807343,300.585785 162.747833,301.032227 
	C162.747833,306.595032 162.652039,312.041748 162.775436,317.483490 
	C162.892944,322.664856 165.280533,324.967865 170.516113,325.041382 
	C176.330643,325.123047 182.147293,325.052643 188.847809,325.009918 
M187.597244,283.994690 
	C192.169815,285.191895 195.795425,283.761963 195.876877,280.057404 
	C195.925369,277.852448 194.571121,274.551453 192.858932,273.675415 
	C191.178528,272.815674 187.547058,273.649902 186.015076,275.076141 
	C183.136642,277.755859 184.061310,281.035645 187.597244,283.994690 
M166.667175,272.826385 
	C162.771729,273.628387 160.449081,276.214874 161.774536,279.867035 
	C162.529510,281.947327 165.583344,284.323547 167.701172,284.421478 
	C169.396301,284.499847 172.254181,281.611511 172.799088,279.562103 
	C173.796890,275.809296 171.502945,273.306000 166.667175,272.826385 
z"/>
<path fill="#060606" opacity="1.000000" stroke="none" 
	d="
M192.000244,180.831543 
	C159.711273,180.830215 127.922295,180.830215 95.425613,180.830215 
	C97.181908,169.059830 98.728760,158.433899 100.359077,147.820816 
	C103.795067,125.453156 107.402275,103.110497 110.612808,80.710785 
	C111.157066,76.913498 110.073242,72.882858 109.690536,68.355995 
	C110.321953,68.355995 111.378304,68.355988 112.434654,68.356003 
	C151.246979,68.356728 190.059296,68.351524 228.871628,68.364685 
	C234.563034,68.366615 235.504669,69.209099 234.819580,74.129242 
	C229.885483,109.563477 224.893829,144.989700 219.862289,180.832870 
	C210.716736,180.832870 201.608490,180.832870 192.000244,180.831543 
M114.341682,156.883179 
	C113.269859,165.939911 113.955338,166.697128 123.053200,166.693878 
	C148.878189,166.684662 174.703506,166.620941 200.527832,166.750580 
	C205.076859,166.773407 207.213760,165.033417 207.774811,160.550873 
	C210.731079,136.931549 213.831497,113.330299 216.828842,89.716042 
	C217.538742,84.123299 216.024261,82.438545 210.259766,82.433006 
	C183.768570,82.407547 157.277176,82.490646 130.786255,82.405952 
	C126.262108,82.391495 124.311600,84.120407 123.717903,88.717285 
	C120.818245,111.168938 117.629105,133.583206 114.341682,156.883179 
z"/>
<path fill="#010101" opacity="1.000000" stroke="none" 
	d="
M79.905029,42.972252 
	C79.909279,38.983059 79.841362,35.482777 79.934395,31.986773 
	C80.080078,26.512196 82.769730,23.775211 88.241394,23.486897 
	C90.067749,23.390663 91.904907,23.511929 93.737122,23.512300 
	C129.720383,23.519604 165.703629,23.523745 201.686890,23.528486 
	C203.338577,23.528704 204.990250,23.528515 206.962158,23.528515 
	C206.962158,35.311264 206.962158,46.903831 206.962158,59.187786 
	C205.408752,59.187786 203.651855,59.187840 201.894958,59.187782 
	C165.078751,59.186630 128.262527,59.183647 91.446312,59.185528 
	C81.773659,59.186020 79.909653,57.299633 79.905067,47.461163 
	C79.904449,46.128468 79.905006,44.795773 79.905029,42.972252 
z"/>
<path fill="#000000" opacity="1.000000" stroke="none" 
	d="
M191.900146,220.776703 
	C193.278656,221.585678 194.910110,222.371094 194.934814,223.204178 
	C195.141251,230.162537 195.052109,237.129654 195.052109,244.470413 
	C193.007080,244.470413 191.384552,244.470428 189.762009,244.470413 
	C152.273392,244.470291 114.784767,244.471756 77.296150,244.468735 
	C69.804619,244.468140 69.563446,244.213120 69.559166,236.493713 
	C69.556396,231.498047 69.558647,226.502396 69.558647,220.775253 
	C110.265999,220.775253 150.837173,220.775253 191.900146,220.776703 
z"/>
<path fill="#0B0B0B" opacity="1.000000" stroke="none" 
	d="
M100.999802,211.595734 
	C92.209442,211.595718 83.919075,211.595718 74.366776,211.595718 
	C80.608269,203.860855 86.215401,196.820145 91.980980,189.911682 
	C92.547218,189.233185 94.086243,189.154922 95.174072,189.153915 
	C134.595200,189.117477 174.016357,189.123322 213.437500,189.123322 
	C213.638153,189.642197 213.838791,190.161057 214.039429,190.679932 
	C208.723160,197.354416 203.503143,204.110626 197.983994,210.612900 
	C197.181427,211.558426 194.948792,211.542633 193.377121,211.545441 
	C162.751419,211.600128 132.125595,211.591461 100.999802,211.595734 
M133.078766,199.784576 
	C134.231567,201.940308 134.970200,204.575989 136.697250,206.066254 
	C137.685028,206.918579 140.925919,206.585098 141.995132,205.568436 
	C143.434372,204.199905 144.682648,201.459717 144.300598,199.674759 
	C143.915817,197.877106 141.318451,195.169815 139.898666,195.291382 
	C137.595596,195.488586 135.462372,197.669373 133.078766,199.784576 
M100.981140,203.459152 
	C103.359505,204.477432 105.873840,206.551743 108.084419,206.267090 
	C111.419365,205.837662 113.217339,202.410034 111.742546,199.405609 
	C110.750511,197.384628 107.607079,195.114670 105.528305,195.208954 
	C101.438629,195.394409 99.757217,198.574509 100.981140,203.459152 
M168.406464,195.789642 
	C164.926758,199.497253 164.656555,203.101532 167.822784,205.492966 
	C170.883865,207.805008 174.060287,207.380539 175.949005,204.257828 
	C176.943542,202.613510 177.027847,199.700912 176.272690,197.879410 
	C175.052155,194.935349 172.180115,194.274185 168.406464,195.789642 
z"/>
<path fill="#F4F4F4" opacity="1.000000" stroke="none" 
	d="
M247.374130,297.474060 
	C248.420990,299.125732 249.670288,300.514313 249.749710,301.966888 
	C250.011536,306.755615 249.889603,311.567871 249.836960,316.370270 
	C249.803116,319.457031 248.231674,321.641846 245.111099,321.618591 
	C241.941422,321.595001 240.575317,319.344849 240.593292,316.241730 
	C240.620148,311.604523 240.549500,306.966034 240.632431,302.330078 
	C240.707565,298.128357 242.746109,296.218872 247.374130,297.474060 
z"/>
<path fill="#F6F6F6" opacity="1.000000" stroke="none" 
	d="
M263.073181,321.661926 
	C261.401855,319.782288 259.246704,318.049316 259.010559,316.085510 
	C258.460541,311.511658 258.844452,306.826630 258.830505,302.186707 
	C258.821167,299.078003 260.104279,296.938599 263.415802,296.971802 
	C266.721313,297.004974 267.967896,299.220062 267.975586,302.277527 
	C267.987244,306.917267 267.935638,311.557434 267.983490,316.196686 
	C268.016022,319.346649 266.547607,321.164551 263.073181,321.661926 
z"/>
<path fill="#F8F8F8" opacity="1.000000" stroke="none" 
	d="
M188.405426,325.029205 
	C182.147293,325.052643 176.330643,325.123047 170.516113,325.041382 
	C165.280533,324.967865 162.892944,322.664856 162.775436,317.483490 
	C162.652039,312.041748 162.747833,306.595032 162.747833,301.032227 
	C158.807343,300.585785 153.993576,301.259125 154.231400,296.009094 
	C154.487640,290.352661 159.412216,291.555786 163.066162,291.535461 
	C174.199265,291.473541 185.332993,291.521423 196.466461,291.538727 
	C199.791580,291.543884 203.789261,291.051392 203.967087,295.826019 
	C204.154617,300.861084 200.121796,300.774658 196.527832,300.812897 
	C196.200958,300.816376 195.875168,300.920349 194.959961,301.081055 
	C194.959961,306.217529 194.902573,311.473206 194.977737,316.726990 
	C195.040344,321.102753 193.414474,324.115479 188.405426,325.029205 
M184.266113,300.790741 
	C180.201920,300.790741 176.137726,300.790741 172.181580,300.790741 
	C172.181580,306.193481 172.181580,310.920746 172.181580,315.563721 
	C176.863663,315.563721 181.230209,315.563721 186.130981,315.563721 
	C185.803299,310.452515 185.500809,305.734314 184.266113,300.790741 
z"/>
<path fill="#F1F1F1" opacity="1.000000" stroke="none" 
	d="
M187.273041,283.809631 
	C184.061310,281.035645 183.136642,277.755859 186.015076,275.076141 
	C187.547058,273.649902 191.178528,272.815674 192.858932,273.675415 
	C194.571121,274.551453 195.925369,277.852448 195.876877,280.057404 
	C195.795425,283.761963 192.169815,285.191895 187.273041,283.809631 
z"/>
<path fill="#F1F1F1" opacity="1.000000" stroke="none" 
	d="
M167.069489,272.821991 
	C171.502945,273.306000 173.796890,275.809296 172.799088,279.562103 
	C172.254181,281.611511 169.396301,284.499847 167.701172,284.421478 
	C165.583344,284.323547 162.529510,281.947327 161.774536,279.867035 
	C160.449081,276.214874 162.771729,273.628387 167.069489,272.821991 
z"/>
<path fill="#EFEFEF" opacity="1.000000" stroke="none" 
	d="
M114.442017,156.446930 
	C117.629105,133.583206 120.818245,111.168938 123.717903,88.717285 
	C124.311600,84.120407 126.262108,82.391495 130.786255,82.405952 
	C157.277176,82.490646 183.768570,82.407547 210.259766,82.433006 
	C216.024261,82.438545 217.538742,84.123299 216.828842,89.716042 
	C213.831497,113.330299 210.731079,136.931549 207.774811,160.550873 
	C207.213760,165.033417 205.076859,166.773407 200.527832,166.750580 
	C174.703506,166.620941 148.878189,166.684662 123.053200,166.693878 
	C113.955338,166.697128 113.269859,165.939911 114.442017,156.446930 
M143.500122,157.342728 
	C161.918030,157.342728 180.335953,157.342728 198.798462,157.342728 
	C201.640884,135.163345 204.386902,113.736237 207.169785,92.021400 
	C182.171326,92.021400 157.577103,92.021400 132.590271,92.021400 
	C129.631088,113.749512 126.684921,135.382034 123.694061,157.342728 
	C130.535309,157.342728 136.517746,157.342728 143.500122,157.342728 
z"/>
<path fill="#F1F1F1" opacity="1.000000" stroke="none" 
	d="
M133.168091,199.398666 
	C135.462372,197.669373 137.595596,195.488586 139.898666,195.291382 
	C141.318451,195.169815 143.915817,197.877106 144.300598,199.674759 
	C144.682648,201.459717 143.434372,204.199905 141.995132,205.568436 
	C140.925919,206.585098 137.685028,206.918579 136.697250,206.066254 
	C134.970200,204.575989 134.231567,201.940308 133.168091,199.398666 
z"/>
<path fill="#F2F2F2" opacity="1.000000" stroke="none" 
	d="
M100.864136,203.106415 
	C99.757217,198.574509 101.438629,195.394409 105.528305,195.208954 
	C107.607079,195.114670 110.750511,197.384628 111.742546,199.405609 
	C113.217339,202.410034 111.419365,205.837662 108.084419,206.267090 
	C105.873840,206.551743 103.359505,204.477432 100.864136,203.106415 
z"/>
<path fill="#F4F4F4" opacity="1.000000" stroke="none" 
	d="
M168.752655,195.575745 
	C172.180115,194.274185 175.052155,194.935349 176.272690,197.879410 
	C177.027847,199.700912 176.943542,202.613510 175.949005,204.257828 
	C174.060287,207.380539 170.883865,207.805008 167.822784,205.492966 
	C164.656555,203.101532 164.926758,199.497253 168.752655,195.575745 
z"/>
<path fill="#080808" opacity="1.000000" stroke="none" 
	d="
M184.732208,300.903442 
	C185.500809,305.734314 185.803299,310.452515 186.130981,315.563721 
	C181.230209,315.563721 176.863663,315.563721 172.181580,315.563721 
	C172.181580,310.920746 172.181580,306.193481 172.181580,300.790741 
	C176.137726,300.790741 180.201920,300.790741 184.732208,300.903442 
z"/>
<path fill="#010101" opacity="1.000000" stroke="none" 
	d="
M143.000153,157.342728 
	C136.517746,157.342728 130.535309,157.342728 123.694061,157.342728 
	C126.684921,135.382034 129.631088,113.749512 132.590271,92.021400 
	C157.577103,92.021400 182.171326,92.021400 207.169785,92.021400 
	C204.386902,113.736237 201.640884,135.163345 198.798462,157.342728 
	C180.335953,157.342728 161.918030,157.342728 143.000153,157.342728 
z"/>
</svg>